<svg xmlns="http://www.w3.org/2000/svg" viewBox="0 0 320 320" role="img" aria-label="East River Cobras logo">
  <defs><linearGradient id="bg" x1="0" x2="1" y1="0" y2="1"><stop offset="0%" stop-color="#5b21b6"/><stop offset="100%" stop-color="#2e1065"/></linearGradient></defs>
  <rect width="320" height="320" rx="38" fill="url(#bg)"/>
  <path d="M84 210 C86 140 150 98 214 114 C196 126 174 140 162 160 C150 180 150 205 164 222 C132 236 108 232 84 210 Z" fill="#9f67ff"/>
  <path d="M180 124 C206 130 226 148 238 170 C225 166 212 168 200 176 C188 184 178 198 174 214 C156 188 158 150 180 124 Z" fill="#f59e0b"/>
  <text x="160" y="264" text-anchor="middle" font-family="Montserrat, Arial" font-size="36" font-weight="900" fill="#fef3c7" letter-spacing="2">COBRAS</text>
  <text x="160" y="236" text-anchor="middle" font-family="Montserrat, Arial" font-size="20" font-weight="800" fill="#e5e7eb" letter-spacing="4">EAST RIVER</text>
</svg>
